<?xml version="1.0" standalone="no"?>
<!DOCTYPE svg PUBLIC "-//W3C//DTD SVG 20010904//EN"
 "http://www.w3.org/TR/2001/REC-SVG-20010904/DTD/svg10.dtd">
<svg version="1.0" xmlns="http://www.w3.org/2000/svg"
 width="728.000000pt" height="728.000000pt" viewBox="0 0 728.000000 728.000000"
 preserveAspectRatio="xMidYMid meet">
<metadata>
Created by potrace 1.14, written by Peter Selinger 2001-2017
</metadata>
<g transform="translate(0.000000,728.000000) scale(0.100000,-0.100000)"
fill="#000000" stroke="none">
<path d="M3368 6954 c-3 -2 -37 -6 -76 -9 -69 -5 -127 -11 -181 -19 -14 -3
-46 -7 -71 -10 -25 -3 -56 -8 -70 -11 -34 -7 -91 -17 -115 -21 -11 -1 -20 -3
-20 -4 0 -1 -11 -3 -24 -6 -50 -9 -230 -56 -311 -81 -47 -15 -87 -27 -90 -28
-3 -1 -12 -4 -20 -8 -8 -3 -33 -11 -55 -18 -160 -48 -493 -202 -663 -306 -29
-18 -54 -33 -56 -33 -16 0 -320 -214 -396 -278 -123 -104 -134 -114 -226 -203
-57 -55 -118 -118 -218 -229 -8 -8 -46 -55 -85 -105 -39 -49 -75 -95 -80 -101
-19 -23 -130 -192 -166 -254 -21 -36 -45 -76 -54 -90 -45 -73 -201 -416 -215
-475 -2 -5 -5 -17 -8 -25 -34 -93 -91 -301 -104 -380 -3 -19 -7 -37 -9 -40 -2
-3 -6 -26 -9 -50 -4 -25 -9 -58 -13 -75 -3 -16 -7 -43 -9 -60 -2 -16 -7 -61
-11 -100 -9 -80 -9 -512 0 -595 3 -30 11 -89 17 -130 7 -41 14 -91 17 -110 2
-19 11 -62 20 -95 8 -33 17 -73 20 -90 2 -16 7 -37 10 -45 3 -8 7 -19 8 -25
20 -85 97 -308 141 -403 13 -29 24 -56 24 -60 0 -12 131 -266 146 -283 8 -8
14 -19 14 -23 0 -7 80 -137 90 -146 3 -3 27 -38 54 -78 158 -236 430 -525 671
-712 39 -30 72 -57 75 -60 3 -3 34 -26 70 -51 36 -24 67 -46 70 -49 12 -13 91
-60 99 -60 5 0 11 -4 13 -8 3 -9 84 -58 183 -112 33 -18 75 -41 93 -51 17 -10
32 -15 32 -11 0 4 4 3 8 -3 4 -5 25 -18 47 -29 22 -10 51 -24 65 -31 56 -29
302 -125 420 -163 134 -44 324 -93 430 -112 36 -7 72 -14 80 -17 8 -3 31 -7
50 -10 44 -5 75 -10 75 -12 0 -1 20 -4 45 -7 25 -2 59 -6 75 -8 103 -15 242
-21 470 -20 259 0 364 5 499 25 39 5 89 12 111 15 22 3 74 12 115 21 74 14 90
17 140 28 14 4 34 8 45 10 11 3 45 12 75 20 30 9 62 16 70 17 8 0 20 4 25 8 6
4 27 11 49 14 21 4 46 11 55 16 12 7 165 59 191 65 3 1 16 6 30 12 14 6 49 20
78 32 112 44 432 201 452 221 3 3 21 14 40 24 86 46 407 267 430 295 3 4 30
26 60 51 30 25 68 58 85 73 100 95 190 185 256 257 41 46 79 88 84 94 6 6 51
65 100 131 50 66 93 122 98 123 4 2 7 8 7 12 0 5 24 47 54 92 29 46 71 117 92
158 21 41 41 77 45 80 5 5 42 79 44 90 1 3 18 40 38 83 21 43 37 81 37 84 0 3
6 19 14 36 29 68 83 223 91 265 2 9 4 18 5 20 2 1 4 7 5 12 1 6 3 11 5 13 1 1
3 9 5 17 2 8 11 47 20 85 9 39 19 79 21 90 2 11 6 31 9 45 8 37 22 120 30 180
21 147 28 560 12 700 -8 73 -23 180 -32 225 -22 116 -29 148 -46 215 -91 345
-203 609 -387 905 -31 50 -60 92 -64 93 -4 2 -8 8 -8 13 0 11 -149 211 -200
269 -17 19 -42 49 -56 65 -100 118 -326 330 -464 435 -18 14 -41 33 -52 42
-11 9 -65 47 -121 85 -56 37 -104 70 -107 73 -6 6 -119 74 -190 113 -103 57
-221 115 -315 156 -55 23 -113 49 -130 56 -68 30 -400 137 -465 150 -8 2 -42
10 -76 19 -33 8 -71 18 -85 20 -13 2 -24 5 -24 6 0 2 -15 4 -84 14 -24 4 -47
8 -50 10 -3 2 -33 7 -66 11 -32 3 -62 8 -65 10 -3 2 -36 6 -75 10 -38 3 -88 9
-110 12 -50 7 -621 14 -627 7z"/>
</g>
</svg>
