<?xml version="1.0" standalone="no"?>
<!DOCTYPE svg PUBLIC "-//W3C//DTD SVG 20010904//EN"
 "http://www.w3.org/TR/2001/REC-SVG-20010904/DTD/svg10.dtd">
<svg version="1.0" xmlns="http://www.w3.org/2000/svg"
 width="791.000000pt" height="320.000000pt" viewBox="0 0 791.000000 320.000000"
 preserveAspectRatio="xMidYMid meet">

<g transform="translate(0.000000,320.000000) scale(0.100000,-0.100000)"
fill="#000000" stroke="none">
<path d="M135 3078 c-43 -5 -80 -10 -82 -11 -4 -5 177 -736 332 -1337 85 -333
200 -783 255 -1001 76 -301 109 -415 137 -475 l38 -79 403 -8 c392 -7 403 -7
442 13 22 11 40 23 40 25 0 3 133 509 296 1126 268 1019 299 1126 330 1174
l35 53 292 7 c161 3 1340 2 2622 -3 1716 -7 2336 -6 2354 2 13 6 34 24 45 39
18 25 21 45 24 165 2 75 4 160 5 188 2 58 -16 87 -68 110 -25 10 -581 13
-2903 14 -2830 1 -2873 0 -2900 -19 -26 -18 -42 -74 -282 -1021 -243 -953
-257 -1004 -287 -1038 -31 -35 -34 -36 -47 -19 -19 24 -98 350 -212 874 -105
484 -204 892 -262 1083 l-38 125 -65 11 c-76 14 -391 15 -504 2z"/>
<path d="M7733 2442 c-33 -26 -46 -68 -32 -109 14 -42 47 -65 96 -65 50 0 93
46 93 98 0 75 -98 123 -157 76z m96 -7 c55 -28 60 -104 9 -139 -33 -24 -72
-20 -102 10 -35 36 -34 77 3 115 33 33 50 35 90 14z"/>
<path d="M7750 2365 c0 -42 3 -55 15 -55 8 0 15 9 15 20 0 11 5 20 11 20 6 0
13 -9 16 -20 3 -11 12 -20 19 -20 16 0 19 26 4 35 -6 4 -5 13 2 25 17 26 -6
50 -48 50 l-34 0 0 -55z m60 20 c0 -8 -7 -15 -15 -15 -8 0 -15 7 -15 15 0 8 7
15 15 15 8 0 15 -7 15 -15z"/>
<path d="M6791 2289 c-205 -24 -433 -118 -533 -220 -107 -110 -165 -275 -154
-440 10 -159 66 -282 177 -395 127 -128 271 -184 553 -214 201 -21 281 -42
329 -87 41 -39 67 -99 67 -159 0 -46 -4 -56 -40 -97 -23 -26 -65 -58 -97 -74
-51 -24 -68 -27 -162 -27 -128 0 -191 17 -382 104 -71 33 -152 67 -179 76 -48
16 -52 16 -71 -2 -46 -42 -164 -209 -205 -291 l-45 -88 33 -28 c60 -51 162
-106 322 -172 237 -99 291 -110 526 -110 172 0 205 3 279 23 108 29 183 61
273 116 153 94 239 194 292 346 28 79 30 95 30 220 0 119 -4 145 -27 217 -37
110 -95 194 -176 254 -80 59 -174 97 -351 144 -275 73 -317 86 -400 126 -47
22 -95 50 -107 61 -77 72 -1 234 126 272 76 22 184 20 265 -5 37 -11 131 -51
209 -89 l142 -69 86 87 c92 94 134 165 145 244 l7 47 -59 37 c-245 157 -568
228 -873 193z"/>
<path d="M2840 2203 c-92 -4 -229 -24 -235 -33 -14 -22 -288 -931 -390 -1295
-55 -196 -163 -602 -171 -640 l-6 -33 74 -13 c87 -16 406 -17 433 -2 13 8 32
56 62 158 23 81 48 154 54 161 6 7 36 26 68 41 l56 28 220 -1 c306 -1 317 -7
375 -224 17 -63 37 -124 45 -136 13 -20 26 -21 202 -28 197 -8 320 3 329 29 3
7 -76 341 -175 742 -137 555 -199 786 -260 974 l-81 246 -67 7 c-107 11 -364
26 -418 24 -27 -1 -79 -3 -115 -5z m199 -778 c48 -121 84 -252 79 -292 -2 -22
-10 -30 -43 -39 -59 -18 -160 -17 -196 2 -26 13 -30 20 -24 41 3 15 15 76 26
137 21 121 41 190 72 250 17 36 21 38 32 23 7 -9 31 -64 54 -122z"/>
<path d="M4377 2190 c-65 -5 -142 -14 -171 -20 l-53 -11 -7 -116 c-15 -251
-25 -772 -25 -1248 0 -451 2 -505 18 -550 l18 -50 199 -3 c141 -2 212 2 244
11 41 12 45 16 51 52 4 22 9 209 13 415 6 356 8 376 26 395 15 14 24 17 36 10
22 -14 118 -174 220 -367 217 -409 249 -468 264 -487 14 -19 30 -21 285 -27
193 -5 286 -3 326 5 l57 12 7 232 c7 254 3 1712 -5 1720 -3 3 -43 11 -90 18
-118 17 -343 16 -400 -2 l-45 -15 -3 -84 c-1 -47 -9 -194 -17 -327 -8 -133
-15 -278 -15 -322 0 -79 -1 -81 -27 -87 -19 -5 -30 -2 -39 10 -7 10 -108 191
-226 403 -146 263 -222 392 -243 408 -26 20 -45 23 -155 28 -69 3 -178 1 -243
-3z"/>
</g>
</svg>
